<svg viewBox="0 0 128 128" xmlns="http://www.w3.org/2000/svg">
  <!-- Bulb outline -->
  <path d="M64 4C38 4 16 28 16 54c0 14 8 28 20 36v6c0 4 4 8 8 8h40c4 0 8-4 8-8v-6c12-8 20-22 20-36C112 28 90 4 64 4z" 
        fill="#FFEB3B" stroke="#FBC02D" stroke-width="4"/>

  <!-- Filament -->
  <line x1="48" y1="92" x2="80" y2="92" stroke="#FFA000" stroke-width="4" />
  <line x1="48" y1="92" x2="56" y2="108" stroke="#FFA000" stroke-width="4" />
  <line x1="80" y1="92" x2="72" y2="108" stroke="#FFA000" stroke-width="4" />

  <!-- Base -->
  <rect x="48" y="108" width="32" height="8" rx="4" fill="#9E9E9E"/>
  <rect x="52" y="116" width="24" height="6" rx="3" fill="#616161"/>
  <rect x="56" y="122" width="16" height="4" rx="2" fill="#424242"/>

  <!-- Glow (optional) -->
  <circle cx="64" cy="54" r="60" fill="none" stroke="#FFF9C4" stroke-width="2" stroke-dasharray="4 8" opacity="0.3"/>
</svg>

